<svg width="89" height="72" viewBox="0 0 89 72" fill="none" xmlns="http://www.w3.org/2000/svg">
<path d="M31.464 29.974C31.8187 30.03 32.1407 30.1747 32.43 30.408C32.7287 30.6413 32.962 30.9307 33.13 31.276C33.3073 31.6213 33.396 31.99 33.396 32.382C33.396 32.8767 33.27 33.3247 33.018 33.726C32.766 34.118 32.3973 34.4307 31.912 34.664C31.436 34.888 30.8713 35 30.218 35H26.578V25.242H30.078C30.7407 25.242 31.3053 25.354 31.772 25.578C32.2387 25.7927 32.5887 26.0867 32.822 26.46C33.0553 26.8333 33.172 27.2533 33.172 27.72C33.172 28.2987 33.0133 28.7793 32.696 29.162C32.388 29.5353 31.9773 29.806 31.464 29.974ZM27.852 29.456H29.994C30.5913 29.456 31.0533 29.316 31.38 29.036C31.7067 28.756 31.87 28.3687 31.87 27.874C31.87 27.3793 31.7067 26.992 31.38 26.712C31.0533 26.432 30.582 26.292 29.966 26.292H27.852V29.456ZM30.106 33.95C30.7407 33.95 31.2353 33.8007 31.59 33.502C31.9447 33.2033 32.122 32.788 32.122 32.256C32.122 31.7147 31.9353 31.29 31.562 30.982C31.1887 30.6647 30.6893 30.506 30.064 30.506H27.852V33.95H30.106ZM36.4379 24.64V35H35.1639V24.64H36.4379ZM41.9553 35.126C41.2366 35.126 40.5833 34.9627 39.9953 34.636C39.4166 34.3093 38.9593 33.8473 38.6233 33.25C38.2966 32.6433 38.1333 31.9433 38.1333 31.15C38.1333 30.366 38.3013 29.6753 38.6373 29.078C38.9826 28.4713 39.4493 28.0093 40.0373 27.692C40.6253 27.3653 41.2833 27.202 42.0113 27.202C42.7393 27.202 43.3973 27.3653 43.9853 27.692C44.5733 28.0093 45.0353 28.4667 45.3713 29.064C45.7166 29.6613 45.8893 30.3567 45.8893 31.15C45.8893 31.9433 45.7119 32.6433 45.3573 33.25C45.0119 33.8473 44.5406 34.3093 43.9433 34.636C43.3459 34.9627 42.6833 35.126 41.9553 35.126ZM41.9553 34.006C42.4126 34.006 42.8419 33.8987 43.2433 33.684C43.6446 33.4693 43.9666 33.1473 44.2093 32.718C44.4613 32.2887 44.5873 31.766 44.5873 31.15C44.5873 30.534 44.4659 30.0113 44.2233 29.582C43.9806 29.1527 43.6633 28.8353 43.2713 28.63C42.8793 28.4153 42.4546 28.308 41.9973 28.308C41.5306 28.308 41.1013 28.4153 40.7093 28.63C40.3266 28.8353 40.0186 29.1527 39.7853 29.582C39.5519 30.0113 39.4353 30.534 39.4353 31.15C39.4353 31.7753 39.5473 32.3027 39.7713 32.732C40.0046 33.1613 40.3126 33.4833 40.6953 33.698C41.0779 33.9033 41.4979 34.006 41.9553 34.006ZM50.7283 27.202C51.391 27.202 51.9697 27.3467 52.4643 27.636C52.9683 27.9253 53.3417 28.2893 53.5843 28.728V27.328H54.8723V35.168C54.8723 35.868 54.723 36.4887 54.4243 37.03C54.1257 37.5807 53.6963 38.01 53.1363 38.318C52.5857 38.626 51.9417 38.78 51.2043 38.78C50.1963 38.78 49.3563 38.542 48.6843 38.066C48.0123 37.59 47.6157 36.9413 47.4943 36.12H48.7543C48.8943 36.5867 49.1837 36.96 49.6223 37.24C50.061 37.5293 50.5883 37.674 51.2043 37.674C51.9043 37.674 52.4737 37.4547 52.9123 37.016C53.3603 36.5773 53.5843 35.9613 53.5843 35.168V33.558C53.3323 34.006 52.959 34.3793 52.4643 34.678C51.9697 34.9767 51.391 35.126 50.7283 35.126C50.047 35.126 49.4263 34.958 48.8663 34.622C48.3157 34.286 47.8817 33.8147 47.5643 33.208C47.247 32.6013 47.0883 31.9107 47.0883 31.136C47.0883 30.352 47.247 29.666 47.5643 29.078C47.8817 28.4807 48.3157 28.0187 48.8663 27.692C49.4263 27.3653 50.047 27.202 50.7283 27.202ZM53.5843 31.15C53.5843 30.5713 53.4677 30.0673 53.2343 29.638C53.001 29.2087 52.6837 28.882 52.2823 28.658C51.8903 28.4247 51.4563 28.308 50.9803 28.308C50.5043 28.308 50.0703 28.42 49.6783 28.644C49.2863 28.868 48.9737 29.1947 48.7403 29.624C48.507 30.0533 48.3903 30.5573 48.3903 31.136C48.3903 31.724 48.507 32.2373 48.7403 32.676C48.9737 33.1053 49.2863 33.4367 49.6783 33.67C50.0703 33.894 50.5043 34.006 50.9803 34.006C51.4563 34.006 51.8903 33.894 52.2823 33.67C52.6837 33.4367 53.001 33.1053 53.2343 32.676C53.4677 32.2373 53.5843 31.7287 53.5843 31.15ZM59.7413 35.126C59.1533 35.126 58.6259 35.028 58.1593 34.832C57.6926 34.6267 57.3239 34.3467 57.0533 33.992C56.7826 33.628 56.6333 33.2127 56.6053 32.746H57.9213C57.9586 33.1287 58.1359 33.4413 58.4533 33.684C58.7799 33.9267 59.2046 34.048 59.7273 34.048C60.2126 34.048 60.5953 33.9407 60.8753 33.726C61.1553 33.5113 61.2953 33.2407 61.2953 32.914C61.2953 32.578 61.1459 32.3307 60.8473 32.172C60.5486 32.004 60.0866 31.8407 59.4613 31.682C58.8919 31.5327 58.4253 31.3833 58.0613 31.234C57.7066 31.0753 57.3986 30.8467 57.1373 30.548C56.8853 30.24 56.7593 29.8387 56.7593 29.344C56.7593 28.952 56.8759 28.5927 57.1093 28.266C57.3426 27.9393 57.6739 27.6827 58.1033 27.496C58.5326 27.3 59.0226 27.202 59.5733 27.202C60.4226 27.202 61.1086 27.4167 61.6313 27.846C62.1539 28.2753 62.4339 28.8633 62.4713 29.61H61.1973C61.1693 29.2087 61.0059 28.8867 60.7073 28.644C60.4179 28.4013 60.0259 28.28 59.5313 28.28C59.0739 28.28 58.7099 28.378 58.4393 28.574C58.1686 28.77 58.0333 29.0267 58.0333 29.344C58.0333 29.596 58.1126 29.806 58.2713 29.974C58.4393 30.1327 58.6446 30.2633 58.8873 30.366C59.1393 30.4593 59.4846 30.5667 59.9233 30.688C60.4739 30.8373 60.9219 30.9867 61.2673 31.136C61.6126 31.276 61.9066 31.4907 62.1493 31.78C62.4013 32.0693 62.5319 32.4473 62.5413 32.914C62.5413 33.334 62.4246 33.712 62.1913 34.048C61.9579 34.384 61.6266 34.65 61.1973 34.846C60.7773 35.0327 60.2919 35.126 59.7413 35.126Z" fill="#63CBF2"/>
<circle cx="44.5" cy="49.5" r="2.5" fill="#63CBF2"/>
</svg>
