<svg width="91" height="72" viewBox="0 0 91 72" fill="none" xmlns="http://www.w3.org/2000/svg">
<path d="M32.096 25.242V35H30.822V30.576H25.852V35H24.578V25.242H25.852V29.526H30.822V25.242H32.096ZM37.6174 35.126C36.8987 35.126 36.2454 34.9627 35.6574 34.636C35.0787 34.3093 34.6214 33.8473 34.2854 33.25C33.9587 32.6433 33.7954 31.9433 33.7954 31.15C33.7954 30.366 33.9634 29.6753 34.2994 29.078C34.6447 28.4713 35.1114 28.0093 35.6994 27.692C36.2874 27.3653 36.9454 27.202 37.6734 27.202C38.4014 27.202 39.0594 27.3653 39.6474 27.692C40.2354 28.0093 40.6974 28.4667 41.0334 29.064C41.3787 29.6613 41.5514 30.3567 41.5514 31.15C41.5514 31.9433 41.374 32.6433 41.0194 33.25C40.674 33.8473 40.2027 34.3093 39.6054 34.636C39.008 34.9627 38.3454 35.126 37.6174 35.126ZM37.6174 34.006C38.0747 34.006 38.504 33.8987 38.9054 33.684C39.3067 33.4693 39.6287 33.1473 39.8714 32.718C40.1234 32.2887 40.2494 31.766 40.2494 31.15C40.2494 30.534 40.128 30.0113 39.8854 29.582C39.6427 29.1527 39.3254 28.8353 38.9334 28.63C38.5414 28.4153 38.1167 28.308 37.6594 28.308C37.1927 28.308 36.7634 28.4153 36.3714 28.63C35.9887 28.8353 35.6807 29.1527 35.4474 29.582C35.214 30.0113 35.0974 30.534 35.0974 31.15C35.0974 31.7753 35.2094 32.3027 35.4334 32.732C35.6667 33.1613 35.9747 33.4833 36.3574 33.698C36.74 33.9033 37.16 34.006 37.6174 34.006ZM52.4524 27.188C53.0498 27.188 53.5818 27.314 54.0484 27.566C54.5151 27.8087 54.8838 28.1773 55.1544 28.672C55.4251 29.1667 55.5604 29.7687 55.5604 30.478V35H54.3004V30.66C54.3004 29.8947 54.1091 29.3113 53.7264 28.91C53.3531 28.4993 52.8444 28.294 52.2004 28.294C51.5378 28.294 51.0104 28.5087 50.6184 28.938C50.2264 29.358 50.0304 29.9693 50.0304 30.772V35H48.7704V30.66C48.7704 29.8947 48.5791 29.3113 48.1964 28.91C47.8231 28.4993 47.3144 28.294 46.6704 28.294C46.0078 28.294 45.4804 28.5087 45.0884 28.938C44.6964 29.358 44.5004 29.9693 44.5004 30.772V35H43.2264V27.328H44.5004V28.434C44.7524 28.0327 45.0884 27.7247 45.5084 27.51C45.9378 27.2953 46.4091 27.188 46.9224 27.188C47.5664 27.188 48.1358 27.3327 48.6304 27.622C49.1251 27.9113 49.4938 28.336 49.7364 28.896C49.9511 28.3547 50.3058 27.9347 50.8004 27.636C51.2951 27.3373 51.8458 27.188 52.4524 27.188ZM64.6503 30.87C64.6503 31.1127 64.6363 31.3693 64.6083 31.64H58.4763C58.5229 32.396 58.7796 32.9887 59.2463 33.418C59.7223 33.838 60.2963 34.048 60.9683 34.048C61.5189 34.048 61.9763 33.922 62.3403 33.67C62.7136 33.4087 62.9749 33.0633 63.1243 32.634H64.4963C64.2909 33.3713 63.8803 33.9733 63.2643 34.44C62.6483 34.8973 61.8829 35.126 60.9683 35.126C60.2403 35.126 59.5869 34.9627 59.0083 34.636C58.4389 34.3093 57.9909 33.8473 57.6643 33.25C57.3376 32.6433 57.1743 31.9433 57.1743 31.15C57.1743 30.3567 57.3329 29.6613 57.6503 29.064C57.9676 28.4667 58.4109 28.0093 58.9803 27.692C59.5589 27.3653 60.2216 27.202 60.9683 27.202C61.6963 27.202 62.3403 27.3607 62.9003 27.678C63.4603 27.9953 63.8896 28.434 64.1883 28.994C64.4963 29.5447 64.6503 30.17 64.6503 30.87ZM63.3343 30.604C63.3343 30.1187 63.2269 29.7033 63.0123 29.358C62.7976 29.0033 62.5036 28.7373 62.1303 28.56C61.7663 28.3733 61.3603 28.28 60.9123 28.28C60.2683 28.28 59.7176 28.4853 59.2603 28.896C58.8123 29.3067 58.5556 29.876 58.4903 30.604H63.3343Z" fill="#63CBF2"/>
<circle cx="44.5" cy="49.5" r="2.5" fill="#63CBF2"/>
</svg>
