<svg width="86" height="72" viewBox="0 0 86 72" fill="none" xmlns="http://www.w3.org/2000/svg">
<path d="M26.102 30.114C26.102 29.162 26.3167 28.308 26.746 27.552C27.1753 26.7867 27.7587 26.1893 28.496 25.76C29.2427 25.3307 30.0687 25.116 30.974 25.116C32.038 25.116 32.9667 25.3727 33.76 25.886C34.5533 26.3993 35.132 27.1273 35.496 28.07H33.97C33.6993 27.482 33.3073 27.0293 32.794 26.712C32.29 26.3947 31.6833 26.236 30.974 26.236C30.2927 26.236 29.6813 26.3947 29.14 26.712C28.5987 27.0293 28.174 27.482 27.866 28.07C27.558 28.6487 27.404 29.33 27.404 30.114C27.404 30.8887 27.558 31.57 27.866 32.158C28.174 32.7367 28.5987 33.1847 29.14 33.502C29.6813 33.8193 30.2927 33.978 30.974 33.978C31.6833 33.978 32.29 33.824 32.794 33.516C33.3073 33.1987 33.6993 32.746 33.97 32.158H35.496C35.132 33.0913 34.5533 33.8147 33.76 34.328C32.9667 34.832 32.038 35.084 30.974 35.084C30.0687 35.084 29.2427 34.874 28.496 34.454C27.7587 34.0247 27.1753 33.432 26.746 32.676C26.3167 31.92 26.102 31.066 26.102 30.114ZM41.2005 27.188C41.7791 27.188 42.3018 27.314 42.7685 27.566C43.2351 27.8087 43.5991 28.1773 43.8605 28.672C44.1311 29.1667 44.2665 29.7687 44.2665 30.478V35H43.0065V30.66C43.0065 29.8947 42.8151 29.3113 42.4325 28.91C42.0498 28.4993 41.5271 28.294 40.8645 28.294C40.1925 28.294 39.6558 28.504 39.2545 28.924C38.8625 29.344 38.6665 29.9553 38.6665 30.758V35H37.3925V24.64H38.6665V28.42C38.9185 28.028 39.2638 27.7247 39.7025 27.51C40.1505 27.2953 40.6498 27.188 41.2005 27.188ZM45.8715 31.136C45.8715 30.352 46.0302 29.666 46.3475 29.078C46.6649 28.4807 47.0989 28.0187 47.6495 27.692C48.2095 27.3653 48.8302 27.202 49.5115 27.202C50.1835 27.202 50.7669 27.3467 51.2615 27.636C51.7562 27.9253 52.1249 28.2893 52.3675 28.728V27.328H53.6555V35H52.3675V33.572C52.1155 34.02 51.7375 34.3933 51.2335 34.692C50.7389 34.9813 50.1602 35.126 49.4975 35.126C48.8162 35.126 48.2002 34.958 47.6495 34.622C47.0989 34.286 46.6649 33.8147 46.3475 33.208C46.0302 32.6013 45.8715 31.9107 45.8715 31.136ZM52.3675 31.15C52.3675 30.5713 52.2509 30.0673 52.0175 29.638C51.7842 29.2087 51.4669 28.882 51.0655 28.658C50.6735 28.4247 50.2395 28.308 49.7635 28.308C49.2875 28.308 48.8535 28.42 48.4615 28.644C48.0695 28.868 47.7569 29.1947 47.5235 29.624C47.2902 30.0533 47.1735 30.5573 47.1735 31.136C47.1735 31.724 47.2902 32.2373 47.5235 32.676C47.7569 33.1053 48.0695 33.4367 48.4615 33.67C48.8535 33.894 49.2875 34.006 49.7635 34.006C50.2395 34.006 50.6735 33.894 51.0655 33.67C51.4669 33.4367 51.7842 33.1053 52.0175 32.676C52.2509 32.2373 52.3675 31.7287 52.3675 31.15ZM57.3625 28.378V32.9C57.3625 33.2733 57.4418 33.5393 57.6005 33.698C57.7591 33.8473 58.0345 33.922 58.4265 33.922H59.3645V35H58.2165C57.5071 35 56.9751 34.8367 56.6205 34.51C56.2658 34.1833 56.0885 33.6467 56.0885 32.9V28.378H55.0945V27.328H56.0885V25.396H57.3625V27.328H59.3645V28.378H57.3625Z" fill="#63CBF2"/>
<circle cx="43" cy="49.5" r="2.5" fill="#63CBF2"/>
</svg>
