<svg width="86" height="72" viewBox="0 0 86 72" fill="none" xmlns="http://www.w3.org/2000/svg">
<path d="M36.476 25.312V35H35.202V27.776L31.982 35H31.086L27.852 27.762V35H26.578V25.312H27.95L31.534 33.32L35.118 25.312H36.476ZM45.6366 30.87C45.6366 31.1127 45.6226 31.3693 45.5946 31.64H39.4626C39.5093 32.396 39.7659 32.9887 40.2326 33.418C40.7086 33.838 41.2826 34.048 41.9546 34.048C42.5053 34.048 42.9626 33.922 43.3266 33.67C43.6999 33.4087 43.9613 33.0633 44.1106 32.634H45.4826C45.2773 33.3713 44.8666 33.9733 44.2506 34.44C43.6346 34.8973 42.8693 35.126 41.9546 35.126C41.2266 35.126 40.5733 34.9627 39.9946 34.636C39.4253 34.3093 38.9773 33.8473 38.6506 33.25C38.3239 32.6433 38.1606 31.9433 38.1606 31.15C38.1606 30.3567 38.3193 29.6613 38.6366 29.064C38.9539 28.4667 39.3973 28.0093 39.9666 27.692C40.5453 27.3653 41.2079 27.202 41.9546 27.202C42.6826 27.202 43.3266 27.3607 43.8866 27.678C44.4466 27.9953 44.8759 28.434 45.1746 28.994C45.4826 29.5447 45.6366 30.17 45.6366 30.87ZM44.3206 30.604C44.3206 30.1187 44.2133 29.7033 43.9986 29.358C43.7839 29.0033 43.4899 28.7373 43.1166 28.56C42.7526 28.3733 42.3466 28.28 41.8986 28.28C41.2546 28.28 40.7039 28.4853 40.2466 28.896C39.7986 29.3067 39.5419 29.876 39.4766 30.604H44.3206ZM54.3182 30.87C54.3182 31.1127 54.3042 31.3693 54.2762 31.64H48.1442C48.1909 32.396 48.4476 32.9887 48.9142 33.418C49.3902 33.838 49.9642 34.048 50.6362 34.048C51.1869 34.048 51.6442 33.922 52.0082 33.67C52.3816 33.4087 52.6429 33.0633 52.7922 32.634H54.1642C53.9589 33.3713 53.5482 33.9733 52.9322 34.44C52.3162 34.8973 51.5509 35.126 50.6362 35.126C49.9082 35.126 49.2549 34.9627 48.6762 34.636C48.1069 34.3093 47.6589 33.8473 47.3322 33.25C47.0056 32.6433 46.8422 31.9433 46.8422 31.15C46.8422 30.3567 47.0009 29.6613 47.3182 29.064C47.6356 28.4667 48.0789 28.0093 48.6482 27.692C49.2269 27.3653 49.8896 27.202 50.6362 27.202C51.3642 27.202 52.0082 27.3607 52.5682 27.678C53.1282 27.9953 53.5576 28.434 53.8562 28.994C54.1642 29.5447 54.3182 30.17 54.3182 30.87ZM53.0022 30.604C53.0022 30.1187 52.8949 29.7033 52.6802 29.358C52.4656 29.0033 52.1716 28.7373 51.7982 28.56C51.4342 28.3733 51.0282 28.28 50.5802 28.28C49.9362 28.28 49.3856 28.4853 48.9282 28.896C48.4802 29.3067 48.2236 29.876 48.1582 30.604H53.0022ZM57.5539 28.378V32.9C57.5539 33.2733 57.6332 33.5393 57.7919 33.698C57.9505 33.8473 58.2259 33.922 58.6179 33.922H59.5559V35H58.4079C57.6985 35 57.1665 34.8367 56.8119 34.51C56.4572 34.1833 56.2799 33.6467 56.2799 32.9V28.378H55.2859V27.328H56.2799V25.396H57.5539V27.328H59.5559V28.378H57.5539Z" fill="#63CBF2"/>
<circle cx="43" cy="49.5" r="2.5" fill="#63CBF2"/>
</svg>
