<svg width="18" height="18" viewBox="0 0 18 18" fill="none" xmlns="http://www.w3.org/2000/svg">
<path d="M9 0.25C9.23206 0.25 9.45505 0.341765 9.61914 0.505859C9.78324 0.669954 9.875 0.892936 9.875 1.125V8.125H16.875C17.1071 8.125 17.33 8.21677 17.4941 8.38086C17.6582 8.54495 17.75 8.76794 17.75 9C17.75 9.23206 17.6582 9.45505 17.4941 9.61914C17.33 9.78323 17.1071 9.875 16.875 9.875H9.875V16.875C9.875 17.1071 9.78323 17.33 9.61914 17.4941C9.45505 17.6582 9.23206 17.75 9 17.75C8.76794 17.75 8.54495 17.6582 8.38086 17.4941C8.21677 17.33 8.125 17.1071 8.125 16.875V9.875H1.125C0.892936 9.875 0.669954 9.78324 0.505859 9.61914C0.341765 9.45505 0.25 9.23206 0.25 9C0.25 8.76794 0.341765 8.54495 0.505859 8.38086C0.669954 8.21676 0.892936 8.125 1.125 8.125H8.125V1.125C8.125 0.892936 8.21676 0.669954 8.38086 0.505859C8.54495 0.341765 8.76794 0.25 9 0.25Z" fill="#63CBF2" stroke="white" stroke-width="0.5"/>
</svg>
