<svg width="19" height="19" viewBox="0 0 19 19" fill="none" xmlns="http://www.w3.org/2000/svg">
<path d="M8.59671 15.0517L9.91898 15.0531L10.1738 15.0748C10.4245 15.1097 10.6684 15.1842 10.8963 15.2962C10.9971 15.4146 11.0053 15.5898 10.9076 15.7171L10.9017 15.724L10.8968 15.7308C10.5369 16.2467 9.96165 16.5724 9.33246 16.615L9.32269 16.615L9.31293 16.6159C8.64774 16.6948 7.9781 16.51 7.44918 16.1004L7.44138 16.0936L7.43259 16.0877L7.35258 16.0261C7.18136 15.8782 7.07037 15.6721 7.04065 15.4467C7.04469 15.3934 7.06746 15.354 7.1238 15.31C7.19722 15.2528 7.31259 15.2026 7.45402 15.1697L7.45499 15.1707C7.73661 15.1115 8.02245 15.0741 8.30959 15.0593L8.59671 15.0517ZM8.97361 1.38414L9.04489 1.38422C11.3624 1.38652 13.6993 3.07426 13.9413 5.43206L13.9422 5.43206C13.9619 5.68113 13.9622 5.93786 13.962 6.21333C13.9617 6.48365 13.9611 6.77252 13.9836 7.06004L13.9855 7.0825L13.9894 7.10399C14.1394 7.85479 14.4829 8.55356 14.9854 9.13135C15.2353 9.51035 15.3807 9.94823 15.4051 10.4013L15.4049 10.5468C15.4081 11.1632 15.1875 11.7599 14.7851 12.2278C14.2589 12.789 13.547 13.1419 12.7802 13.22L12.7704 13.2209C10.4197 13.5214 8.04189 13.5378 5.68833 13.2705L5.21768 13.2134L5.20499 13.2124L4.91597 13.1711C4.25246 13.0464 3.6432 12.7142 3.17863 12.2192C2.79241 11.7476 2.59017 11.1525 2.60999 10.5438L2.61014 10.3886C2.63464 9.93571 2.77613 9.49683 3.02059 9.11455C3.52369 8.53909 3.87239 7.84554 4.03139 7.09798L4.0363 7.07454L4.03827 7.05013C4.0613 6.76275 4.06131 6.47584 4.06157 6.2064C4.06171 6.06921 4.06223 5.93617 4.0649 5.80602L4.08286 5.42127C4.33728 3.06117 6.6318 1.3819 8.97361 1.38414Z" stroke="#BDBDBD" stroke-width="0.75"/>
</svg>
