<svg width="24" height="24" viewBox="0 0 24 24" fill="none" xmlns="http://www.w3.org/2000/svg">
<mask id="path-1-outside-1_157_1315" maskUnits="userSpaceOnUse" x="1.4375" y="3.61816" width="21" height="17" fill="black">
<rect fill="white" x="1.4375" y="3.61816" width="21" height="17"/>
<path d="M21.5608 14.4227C21.5668 14.3776 21.5561 14.3319 21.5309 14.2941C21.5056 14.2562 21.4674 14.2289 21.4235 14.2171C20.9351 14.0867 20.5035 13.7987 20.1956 13.3978C19.8877 12.9969 19.7208 12.5055 19.7208 12.0001C19.7208 11.4946 19.8877 11.0032 20.1956 10.6023C20.5035 10.2014 20.9351 9.91343 21.4235 9.78302C21.4634 9.77235 21.4986 9.74881 21.5237 9.71607C21.5489 9.68332 21.5625 9.6432 21.5625 9.60193C21.5625 9.56065 21.5489 9.52053 21.5237 9.48779C21.4986 9.45505 21.4634 9.43151 21.4235 9.42084C20.9351 9.29043 20.5035 9.00241 20.1956 8.60151C19.8877 8.20062 19.7208 7.70928 19.7208 7.2038C19.7208 6.69831 19.8877 6.20697 20.1956 5.80608C20.5035 5.40518 20.9351 5.11717 21.4235 4.98676C21.4674 4.97497 21.5056 4.94762 21.5308 4.9098C21.5561 4.87199 21.5667 4.82628 21.5608 4.78119C21.5549 4.73611 21.5327 4.69471 21.4986 4.66472C21.4644 4.63473 21.4205 4.61818 21.375 4.61816H5.02311C4.42245 4.6179 3.84046 4.82686 3.37715 5.20914C2.91384 5.59141 2.59815 6.12313 2.48433 6.71291C2.37052 7.30268 2.46569 7.91369 2.75348 8.44091C3.04127 8.96814 3.50372 9.37865 4.06135 9.60191C3.58201 9.79358 3.1711 10.1245 2.88165 10.5519C2.59221 10.9794 2.4375 11.4838 2.4375 12C2.4375 12.5163 2.59221 13.0207 2.88165 13.4481C3.1711 13.8756 3.58201 14.2065 4.06135 14.3982C3.50372 14.6214 3.04127 15.0319 2.75348 15.5592C2.46569 16.0864 2.37052 16.6974 2.48433 17.2872C2.59815 17.8769 2.91384 18.4087 3.37715 18.7909C3.84046 19.1732 4.42245 19.3822 5.02311 19.3819H21.375C21.4205 19.3819 21.4644 19.3653 21.4986 19.3354C21.5327 19.3054 21.5549 19.264 21.5608 19.2189C21.5667 19.1738 21.5561 19.1281 21.5308 19.0903C21.5056 19.0525 21.4674 19.0251 21.4235 19.0133C20.9351 18.8829 20.5035 18.5949 20.1956 18.194C19.8877 17.7931 19.7208 17.3018 19.7208 16.7963C19.7208 16.2908 19.8877 15.7995 20.1956 15.3986C20.5035 14.9977 20.9351 14.7097 21.4235 14.5792L21.4229 14.5768C21.4586 14.5677 21.4908 14.5482 21.5153 14.5208C21.5399 14.4934 21.5558 14.4592 21.5608 14.4227ZM2.81249 7.20381C2.81315 6.61772 3.04627 6.05583 3.4607 5.6414C3.87513 5.22698 4.43702 4.99386 5.02311 4.99319H20.5199C20.1583 5.23756 19.8622 5.56688 19.6575 5.95229C19.4528 6.33771 19.3458 6.76744 19.3458 7.20384C19.3458 7.64023 19.4529 8.06997 19.6576 8.45537C19.8623 8.84077 20.1584 9.17008 20.52 9.41444H18.2228V9.78944H20.52C20.1584 10.0338 19.8623 10.3631 19.6576 10.7485C19.4529 11.1339 19.3458 11.5636 19.3458 12C19.3458 12.4364 19.4529 12.8662 19.6575 13.2516C19.8622 13.637 20.1583 13.9663 20.5199 14.2107H11.3716V9.78944H15.5087V9.41444H5.02311C4.43702 9.41377 3.87513 9.18065 3.4607 8.76622C3.04627 8.35179 2.81315 7.7899 2.81249 7.20381ZM2.81249 12.0001C2.81315 11.414 3.04627 10.8521 3.4607 10.4377C3.87513 10.0232 4.43702 9.79011 5.02311 9.78944H7.88468V14.2107H5.02311C4.43702 14.21 3.87513 13.9769 3.4607 13.5625C3.04627 13.148 2.81315 12.5862 2.81249 12.0001ZM19.3458 16.7963C19.3464 17.2326 19.4536 17.6621 19.6583 18.0474C19.8629 18.4328 20.1587 18.7622 20.5199 19.0069H5.02311C4.43682 19.0069 3.87454 18.774 3.45996 18.3595C3.04539 17.9449 2.81249 17.3826 2.81249 16.7963C2.81249 16.21 3.04539 15.6477 3.45996 15.2332C3.87454 14.8186 4.43682 14.5857 5.02311 14.5857H7.88468V15.1079C7.88467 15.1409 7.89337 15.1733 7.90989 15.2019C7.92642 15.2304 7.95019 15.2541 7.9788 15.2705C8.00741 15.2869 8.03985 15.2955 8.07284 15.2954C8.10583 15.2953 8.1382 15.2864 8.16668 15.2698L9.62806 14.4174L11.0896 15.2699C11.1183 15.2866 11.1509 15.2954 11.1841 15.2954C11.2338 15.2954 11.2815 15.2756 11.3167 15.2405C11.3519 15.2053 11.3716 15.1576 11.3716 15.1079V14.5857H20.5207C20.1594 14.8303 19.8634 15.1597 19.6586 15.545C19.4538 15.9303 19.3464 16.3599 19.3458 16.7963ZM17.6891 9.78944H17.1326V9.41444H17.6891V9.78944ZM16.5989 9.78944H16.0424V9.41444H16.5989V9.78944ZM10.6329 11.5562H10.1891V11.1812H10.6329V11.5562ZM9.71355 10.6242H9.2697V10.2492H9.71355V10.6242ZM10.6329 10.6173H10.1891V10.2423H10.6329V10.6173Z"/>
</mask>
<path d="M21.5608 14.4227C21.5668 14.3776 21.5561 14.3319 21.5309 14.2941C21.5056 14.2562 21.4674 14.2289 21.4235 14.2171C20.9351 14.0867 20.5035 13.7987 20.1956 13.3978C19.8877 12.9969 19.7208 12.5055 19.7208 12.0001C19.7208 11.4946 19.8877 11.0032 20.1956 10.6023C20.5035 10.2014 20.9351 9.91343 21.4235 9.78302C21.4634 9.77235 21.4986 9.74881 21.5237 9.71607C21.5489 9.68332 21.5625 9.6432 21.5625 9.60193C21.5625 9.56065 21.5489 9.52053 21.5237 9.48779C21.4986 9.45505 21.4634 9.43151 21.4235 9.42084C20.9351 9.29043 20.5035 9.00241 20.1956 8.60151C19.8877 8.20062 19.7208 7.70928 19.7208 7.2038C19.7208 6.69831 19.8877 6.20697 20.1956 5.80608C20.5035 5.40518 20.9351 5.11717 21.4235 4.98676C21.4674 4.97497 21.5056 4.94762 21.5308 4.9098C21.5561 4.87199 21.5667 4.82628 21.5608 4.78119C21.5549 4.73611 21.5327 4.69471 21.4986 4.66472C21.4644 4.63473 21.4205 4.61818 21.375 4.61816H5.02311C4.42245 4.6179 3.84046 4.82686 3.37715 5.20914C2.91384 5.59141 2.59815 6.12313 2.48433 6.71291C2.37052 7.30268 2.46569 7.91369 2.75348 8.44091C3.04127 8.96814 3.50372 9.37865 4.06135 9.60191C3.58201 9.79358 3.1711 10.1245 2.88165 10.5519C2.59221 10.9794 2.4375 11.4838 2.4375 12C2.4375 12.5163 2.59221 13.0207 2.88165 13.4481C3.1711 13.8756 3.58201 14.2065 4.06135 14.3982C3.50372 14.6214 3.04127 15.0319 2.75348 15.5592C2.46569 16.0864 2.37052 16.6974 2.48433 17.2872C2.59815 17.8769 2.91384 18.4087 3.37715 18.7909C3.84046 19.1732 4.42245 19.3822 5.02311 19.3819H21.375C21.4205 19.3819 21.4644 19.3653 21.4986 19.3354C21.5327 19.3054 21.5549 19.264 21.5608 19.2189C21.5667 19.1738 21.5561 19.1281 21.5308 19.0903C21.5056 19.0525 21.4674 19.0251 21.4235 19.0133C20.9351 18.8829 20.5035 18.5949 20.1956 18.194C19.8877 17.7931 19.7208 17.3018 19.7208 16.7963C19.7208 16.2908 19.8877 15.7995 20.1956 15.3986C20.5035 14.9977 20.9351 14.7097 21.4235 14.5792L21.4229 14.5768C21.4586 14.5677 21.4908 14.5482 21.5153 14.5208C21.5399 14.4934 21.5558 14.4592 21.5608 14.4227ZM2.81249 7.20381C2.81315 6.61772 3.04627 6.05583 3.4607 5.6414C3.87513 5.22698 4.43702 4.99386 5.02311 4.99319H20.5199C20.1583 5.23756 19.8622 5.56688 19.6575 5.95229C19.4528 6.33771 19.3458 6.76744 19.3458 7.20384C19.3458 7.64023 19.4529 8.06997 19.6576 8.45537C19.8623 8.84077 20.1584 9.17008 20.52 9.41444H18.2228V9.78944H20.52C20.1584 10.0338 19.8623 10.3631 19.6576 10.7485C19.4529 11.1339 19.3458 11.5636 19.3458 12C19.3458 12.4364 19.4529 12.8662 19.6575 13.2516C19.8622 13.637 20.1583 13.9663 20.5199 14.2107H11.3716V9.78944H15.5087V9.41444H5.02311C4.43702 9.41377 3.87513 9.18065 3.4607 8.76622C3.04627 8.35179 2.81315 7.7899 2.81249 7.20381ZM2.81249 12.0001C2.81315 11.414 3.04627 10.8521 3.4607 10.4377C3.87513 10.0232 4.43702 9.79011 5.02311 9.78944H7.88468V14.2107H5.02311C4.43702 14.21 3.87513 13.9769 3.4607 13.5625C3.04627 13.148 2.81315 12.5862 2.81249 12.0001ZM19.3458 16.7963C19.3464 17.2326 19.4536 17.6621 19.6583 18.0474C19.8629 18.4328 20.1587 18.7622 20.5199 19.0069H5.02311C4.43682 19.0069 3.87454 18.774 3.45996 18.3595C3.04539 17.9449 2.81249 17.3826 2.81249 16.7963C2.81249 16.21 3.04539 15.6477 3.45996 15.2332C3.87454 14.8186 4.43682 14.5857 5.02311 14.5857H7.88468V15.1079C7.88467 15.1409 7.89337 15.1733 7.90989 15.2019C7.92642 15.2304 7.95019 15.2541 7.9788 15.2705C8.00741 15.2869 8.03985 15.2955 8.07284 15.2954C8.10583 15.2953 8.1382 15.2864 8.16668 15.2698L9.62806 14.4174L11.0896 15.2699C11.1183 15.2866 11.1509 15.2954 11.1841 15.2954C11.2338 15.2954 11.2815 15.2756 11.3167 15.2405C11.3519 15.2053 11.3716 15.1576 11.3716 15.1079V14.5857H20.5207C20.1594 14.8303 19.8634 15.1597 19.6586 15.545C19.4538 15.9303 19.3464 16.3599 19.3458 16.7963ZM17.6891 9.78944H17.1326V9.41444H17.6891V9.78944ZM16.5989 9.78944H16.0424V9.41444H16.5989V9.78944ZM10.6329 11.5562H10.1891V11.1812H10.6329V11.5562ZM9.71355 10.6242H9.2697V10.2492H9.71355V10.6242ZM10.6329 10.6173H10.1891V10.2423H10.6329V10.6173Z" fill="#717171"/>
<path d="M21.5608 14.4227C21.5668 14.3776 21.5561 14.3319 21.5309 14.2941C21.5056 14.2562 21.4674 14.2289 21.4235 14.2171C20.9351 14.0867 20.5035 13.7987 20.1956 13.3978C19.8877 12.9969 19.7208 12.5055 19.7208 12.0001C19.7208 11.4946 19.8877 11.0032 20.1956 10.6023C20.5035 10.2014 20.9351 9.91343 21.4235 9.78302C21.4634 9.77235 21.4986 9.74881 21.5237 9.71607C21.5489 9.68332 21.5625 9.6432 21.5625 9.60193C21.5625 9.56065 21.5489 9.52053 21.5237 9.48779C21.4986 9.45505 21.4634 9.43151 21.4235 9.42084C20.9351 9.29043 20.5035 9.00241 20.1956 8.60151C19.8877 8.20062 19.7208 7.70928 19.7208 7.2038C19.7208 6.69831 19.8877 6.20697 20.1956 5.80608C20.5035 5.40518 20.9351 5.11717 21.4235 4.98676C21.4674 4.97497 21.5056 4.94762 21.5308 4.9098C21.5561 4.87199 21.5667 4.82628 21.5608 4.78119C21.5549 4.73611 21.5327 4.69471 21.4986 4.66472C21.4644 4.63473 21.4205 4.61818 21.375 4.61816H5.02311C4.42245 4.6179 3.84046 4.82686 3.37715 5.20914C2.91384 5.59141 2.59815 6.12313 2.48433 6.71291C2.37052 7.30268 2.46569 7.91369 2.75348 8.44091C3.04127 8.96814 3.50372 9.37865 4.06135 9.60191C3.58201 9.79358 3.1711 10.1245 2.88165 10.5519C2.59221 10.9794 2.4375 11.4838 2.4375 12C2.4375 12.5163 2.59221 13.0207 2.88165 13.4481C3.1711 13.8756 3.58201 14.2065 4.06135 14.3982C3.50372 14.6214 3.04127 15.0319 2.75348 15.5592C2.46569 16.0864 2.37052 16.6974 2.48433 17.2872C2.59815 17.8769 2.91384 18.4087 3.37715 18.7909C3.84046 19.1732 4.42245 19.3822 5.02311 19.3819H21.375C21.4205 19.3819 21.4644 19.3653 21.4986 19.3354C21.5327 19.3054 21.5549 19.264 21.5608 19.2189C21.5667 19.1738 21.5561 19.1281 21.5308 19.0903C21.5056 19.0525 21.4674 19.0251 21.4235 19.0133C20.9351 18.8829 20.5035 18.5949 20.1956 18.194C19.8877 17.7931 19.7208 17.3018 19.7208 16.7963C19.7208 16.2908 19.8877 15.7995 20.1956 15.3986C20.5035 14.9977 20.9351 14.7097 21.4235 14.5792L21.4229 14.5768C21.4586 14.5677 21.4908 14.5482 21.5153 14.5208C21.5399 14.4934 21.5558 14.4592 21.5608 14.4227ZM2.81249 7.20381C2.81315 6.61772 3.04627 6.05583 3.4607 5.6414C3.87513 5.22698 4.43702 4.99386 5.02311 4.99319H20.5199C20.1583 5.23756 19.8622 5.56688 19.6575 5.95229C19.4528 6.33771 19.3458 6.76744 19.3458 7.20384C19.3458 7.64023 19.4529 8.06997 19.6576 8.45537C19.8623 8.84077 20.1584 9.17008 20.52 9.41444H18.2228V9.78944H20.52C20.1584 10.0338 19.8623 10.3631 19.6576 10.7485C19.4529 11.1339 19.3458 11.5636 19.3458 12C19.3458 12.4364 19.4529 12.8662 19.6575 13.2516C19.8622 13.637 20.1583 13.9663 20.5199 14.2107H11.3716V9.78944H15.5087V9.41444H5.02311C4.43702 9.41377 3.87513 9.18065 3.4607 8.76622C3.04627 8.35179 2.81315 7.7899 2.81249 7.20381ZM2.81249 12.0001C2.81315 11.414 3.04627 10.8521 3.4607 10.4377C3.87513 10.0232 4.43702 9.79011 5.02311 9.78944H7.88468V14.2107H5.02311C4.43702 14.21 3.87513 13.9769 3.4607 13.5625C3.04627 13.148 2.81315 12.5862 2.81249 12.0001ZM19.3458 16.7963C19.3464 17.2326 19.4536 17.6621 19.6583 18.0474C19.8629 18.4328 20.1587 18.7622 20.5199 19.0069H5.02311C4.43682 19.0069 3.87454 18.774 3.45996 18.3595C3.04539 17.9449 2.81249 17.3826 2.81249 16.7963C2.81249 16.21 3.04539 15.6477 3.45996 15.2332C3.87454 14.8186 4.43682 14.5857 5.02311 14.5857H7.88468V15.1079C7.88467 15.1409 7.89337 15.1733 7.90989 15.2019C7.92642 15.2304 7.95019 15.2541 7.9788 15.2705C8.00741 15.2869 8.03985 15.2955 8.07284 15.2954C8.10583 15.2953 8.1382 15.2864 8.16668 15.2698L9.62806 14.4174L11.0896 15.2699C11.1183 15.2866 11.1509 15.2954 11.1841 15.2954C11.2338 15.2954 11.2815 15.2756 11.3167 15.2405C11.3519 15.2053 11.3716 15.1576 11.3716 15.1079V14.5857H20.5207C20.1594 14.8303 19.8634 15.1597 19.6586 15.545C19.4538 15.9303 19.3464 16.3599 19.3458 16.7963ZM17.6891 9.78944H17.1326V9.41444H17.6891V9.78944ZM16.5989 9.78944H16.0424V9.41444H16.5989V9.78944ZM10.6329 11.5562H10.1891V11.1812H10.6329V11.5562ZM9.71355 10.6242H9.2697V10.2492H9.71355V10.6242ZM10.6329 10.6173H10.1891V10.2423H10.6329V10.6173Z" stroke="#717171" stroke-width="0.5" mask="url(#path-1-outside-1_157_1315)"/>
</svg>
