<svg width="21" height="19" viewBox="0 0 21 19" fill="none" xmlns="http://www.w3.org/2000/svg">
<path d="M10.3499 2.66517C10.6886 2.31185 11.0047 1.9404 11.3637 1.61425C13.303 -0.14898 15.9094 -0.498909 17.9336 0.718482C20.019 1.97324 21.0679 4.61187 20.4472 7.11007C19.8842 9.37838 18.5147 11.1688 16.9686 12.8414C15.078 14.8866 12.8941 16.5933 10.6478 18.2229C10.5074 18.3248 10.1925 18.3757 10.0758 18.2908C6.99021 16.044 3.98617 13.701 1.77619 10.5222C0.786173 9.09979 0.0362968 7.56418 0.00118173 5.78056C-0.0452608 3.42958 1.28118 1.27792 3.27821 0.416116C5.28203 -0.449081 7.70271 0.0809089 9.41542 1.75921C9.7088 2.04685 10.0056 2.3311 10.3499 2.66517Z" fill="#63CBF2"/>
</svg>
