<svg width="24" height="24" viewBox="0 0 24 24" fill="none" xmlns="http://www.w3.org/2000/svg">
<path d="M16.2002 4.5C18.9241 4.5 21.1006 6.67653 21.1006 9.40039C21.1005 10.6416 20.9112 12.4822 19.2471 14.1465L19.2412 14.1514L19.2363 14.1572C18.476 14.9651 16.7936 16.2366 15.2334 17.3564C14.4618 17.9103 13.7335 18.418 13.1836 18.8008C12.9096 18.9915 12.6778 19.152 12.5088 19.2715C12.4245 19.331 12.3532 19.3827 12.2988 19.4229C12.2829 19.4346 12.2639 19.452 12.2422 19.4688C12.0384 19.5695 11.9564 19.5995 11.9004 19.5996C11.8446 19.5996 11.7629 19.5697 11.5605 19.4697C11.5399 19.4535 11.5218 19.4368 11.5059 19.4248C11.4517 19.3841 11.3803 19.3314 11.2959 19.2705C11.1268 19.1484 10.8955 18.9839 10.6211 18.7891C10.0708 18.3982 9.34181 17.881 8.56934 17.3203C7.01009 16.1886 5.32011 14.9129 4.55371 14.1465C2.88941 12.4822 2.70024 10.6416 2.7002 9.40039C2.7002 6.68252 4.9707 4.5 7.60059 4.5C9.2281 4.50013 10.6812 5.31323 11.5938 6.59082L12 7.16016L12.4072 6.59082C13.3263 5.3041 14.7827 4.5 16.2002 4.5Z" stroke="#717171"/>
</svg>
