<svg width="9" height="9" viewBox="0 0 9 9" fill="none" xmlns="http://www.w3.org/2000/svg">
<rect x="9" y="3.93403e-07" width="9" height="9" rx="4.5" transform="rotate(90 9 3.93403e-07)" fill="white"/>
<path d="M6.28418 4.75879C6.21878 4.73159 6.17578 4.66754 6.17578 4.59668L6.17578 3.97461L4.22168 3.97461C4.12503 3.97442 4.04697 3.89648 4.04688 3.7998L4.04688 3.26758C4.04708 3.171 4.1251 3.09296 4.22168 3.09277L6.17578 3.09277L6.17578 2.4707C6.17578 2.39982 6.21874 2.33578 6.28418 2.30859C6.34977 2.28147 6.42546 2.29643 6.47559 2.34668L7.53613 3.41016C7.60434 3.47857 7.60427 3.58877 7.53613 3.65723L6.47559 4.7207C6.42546 4.77096 6.34977 4.78591 6.28418 4.75879ZM2.89063 6.95605C2.82509 6.98304 2.74929 6.96816 2.69922 6.91797L1.63867 5.85449C1.57053 5.78603 1.57046 5.67486 1.63867 5.60645L2.69922 4.54297C2.74927 4.4928 2.82511 4.47794 2.89063 4.50488C2.95615 4.53197 2.99893 4.59611 2.99902 4.66699L2.99902 5.28906L4.9502 5.28906C5.04706 5.28906 5.12598 5.36798 5.12598 5.46484L5.12598 5.99609C5.12598 6.09296 5.04706 6.17188 4.9502 6.17188L2.99902 6.17188L2.99902 6.79395C2.99902 6.86492 2.95622 6.92893 2.89063 6.95605Z" fill="#63CBF2" stroke="#63CBF2" stroke-width="0.350785" stroke-linejoin="round"/>
</svg>
